<mxfile host="app.diagrams.net" modified="2021-10-14T18:14:18.298Z" agent="5.0 (X11; Linux x86_64) AppleWebKit/537.36 (KHTML, like Gecko) Chrome/94.0.4606.71 Safari/537.36" etag="F0ecaCJHCgJf0ND2ZlZi" version="15.5.2" type="github">
  <diagram id="T_vIvkkRDdqPUsJFXNAz" name="Page-1">
    <mxGraphModel dx="1024" dy="549" grid="1" gridSize="10" guides="1" tooltips="1" connect="1" arrows="1" fold="1" page="1" pageScale="1" pageWidth="850" pageHeight="1100" math="0" shadow="0">
      <root>
        <mxCell id="0" />
        <mxCell id="1" parent="0" />
        <mxCell id="2lAhy3hhc9lQTO_BXP1--1" value="" style="html=1;whiteSpace=wrap;shape=isoCube2;backgroundOutline=1;isoAngle=15;labelBackgroundColor=#97D077;fillColor=default;" vertex="1" parent="1">
          <mxGeometry x="90" y="580" width="90" height="100" as="geometry" />
        </mxCell>
        <mxCell id="2lAhy3hhc9lQTO_BXP1--2" value="" style="html=1;whiteSpace=wrap;shape=isoCube2;backgroundOutline=1;isoAngle=15;labelBackgroundColor=#97D077;fillColor=default;" vertex="1" parent="1">
          <mxGeometry x="90" y="530" width="90" height="100" as="geometry" />
        </mxCell>
      </root>
    </mxGraphModel>
  </diagram>
</mxfile>
